<?xml version="1.0" standalone="no"?>
<!DOCTYPE svg PUBLIC "-//W3C//DTD SVG 20010904//EN"
 "http://www.w3.org/TR/2001/REC-SVG-20010904/DTD/svg10.dtd">
<svg version="1.0" xmlns="http://www.w3.org/2000/svg"
 width="888.000000pt" height="888.000000pt" viewBox="0 0 888.000000 888.000000"
 preserveAspectRatio="xMidYMid meet">
<defs>
  <linearGradient id="gradientFill" x1="0%" y1="0%" x2="100%" y2="100%">
    <stop offset="0%" stop-color="#C477BC"/>  <!-- Bottom-left color -->
    <stop offset="100%" stop-color="#FF7B38"/> <!-- Top-right color -->
  </linearGradient>
</defs>
<g transform="translate(0.000000,888.000000) scale(0.100000,-0.100000)" fill="url(#gradientFill)" 
 stroke="none">
<path d="M4265 8364 c-109 -7 -379 -34 -450 -45 -356 -56 -809 -201 -1135
-364 -761 -380 -1383 -1001 -1761 -1755 -314 -626 -447 -1268 -411 -1978 11
-216 19 -275 77 -592 53 -294 228 -765 393 -1065 87 -157 237 -390 313 -485
319 -398 488 -560 887 -852 61 -46 253 -166 317 -199 33 -18 71 -39 84 -47 38
-26 310 -152 396 -185 509 -193 961 -279 1465 -279 425 0 798 58 1200 187 214
69 313 108 488 190 508 239 966 591 1327 1019 110 130 104 122 226 297 304
436 529 965 623 1466 61 323 76 478 76 798 0 569 -135 1141 -395 1678 -344
711 -901 1305 -1595 1699 -390 221 -786 364 -1275 459 -169 33 -672 64 -850
53z m367 -554 c308 -21 581 -73 855 -161 1263 -409 2160 -1492 2329 -2814 25
-192 25 -645 0 -825 -130 -943 -598 -1741 -1353 -2306 -458 -343 -1068 -582
-1647 -644 -1303 -140 -2565 470 -3255 1573 -305 487 -471 1014 -512 1619 -22
325 22 730 117 1070 210 756 669 1409 1312 1867 476 339 1058 554 1652 610
226 22 312 23 502 11z"/>
<path d="M4370 6633 c-19 -2 -79 -12 -133 -23 -340 -68 -698 -263 -928 -507
-202 -214 -318 -406 -404 -666 -69 -211 -80 -280 -79 -517 1 -179 4 -224 28
-355 16 -82 29 -159 30 -170 1 -19 -7 -20 -294 -25 l-295 -5 1 -110 c4 -259
102 -615 241 -875 213 -398 539 -705 968 -911 214 -103 430 -165 655 -189 120
-12 370 -13 476 -1 215 25 494 108 693 207 437 216 769 545 977 969 339 693
261 1501 -199 2038 -75 88 -240 250 -272 267 -22 12 -64 -15 -624 -389 -330
-220 -605 -401 -610 -401 -14 0 -24 114 -20 222 2 51 2 398 1 771 l-2 677 -87
-2 c-49 0 -104 -3 -123 -5z m34 -2459 c3 -9 6 -164 6 -345 0 -181 2 -329 4
-329 3 0 134 86 292 190 158 105 293 189 298 187 15 -5 61 -134 86 -238 51
-217 1 -437 -136 -604 -86 -104 -183 -168 -324 -216 -168 -56 -336 -52 -491
11 -208 84 -340 222 -406 425 -55 170 -38 401 40 552 97 187 248 297 502 364
88 23 121 24 129 3z"/>
</g>
</svg>
